<svg width="64" height="64" viewBox="0 0 64 64" fill="none" xmlns="http://www.w3.org/2000/svg">
  <rect x="3" y="3" width="58" height="58" rx="14" fill="#0F5132"/>
  <path d="M12 47C22 32 36 25 51 23C47 36 38 45 25 51C18 54 13 53 12 47Z" fill="#B7E66B"/>
  <path d="M15 50C26 39 38 33 51 31" stroke="#FFFFFF" stroke-width="3.8" stroke-linecap="round"/>
  <path d="M42 14V41" stroke="#FFFFFF" stroke-width="3.8" stroke-linecap="round"/>
  <path d="M44 15L56 20L44 25V15Z" fill="#B7E66B"/>
  <circle cx="24" cy="24" r="7" fill="#FFFFFF"/>
  <path d="M15 39C20 31 25 27 32 25" stroke="#FFFFFF" stroke-width="3.5" stroke-linecap="round"/>
  <circle cx="22" cy="22" r="1.2" fill="#0F5132"/>
  <circle cx="27" cy="23" r="1.2" fill="#0F5132"/>
  <circle cx="24" cy="27" r="1.2" fill="#0F5132"/>
</svg>
