<svg width="420" height="120" viewBox="0 0 420 120" fill="none" xmlns="http://www.w3.org/2000/svg" role="img" aria-labelledby="title desc">
  <title id="title">Fairway Finds SA logo</title>
  <desc id="desc">A green shield mark with a fairway, golf ball, and flag beside the Fairway Finds SA wordmark.</desc>
  <rect width="420" height="120" rx="18" fill="#F6F8F4"/>
  <g transform="translate(18 18)">
    <rect width="84" height="84" rx="18" fill="#0F5132"/>
    <path d="M17 61C31 43 48 35 67 33C62 46 52 57 37 66C29 70 22 71 17 61Z" fill="#B7E66B"/>
    <path d="M21 66C36 53 52 46 68 44" stroke="#FFFFFF" stroke-width="4" stroke-linecap="round"/>
    <path d="M57 20V54" stroke="#FFFFFF" stroke-width="4" stroke-linecap="round"/>
    <path d="M59 21L75 27L59 33V21Z" fill="#FFFFFF"/>
    <circle cx="33" cy="31" r="8" fill="#FFFFFF"/>
    <circle cx="30" cy="29" r="1.5" fill="#DCE4DE"/>
    <circle cx="35" cy="29" r="1.5" fill="#DCE4DE"/>
    <circle cx="32" cy="34" r="1.5" fill="#DCE4DE"/>
  </g>
  <text x="122" y="54" fill="#18211D" font-family="Inter, Arial, sans-serif" font-size="31" font-weight="850" letter-spacing="0">Fairway Finds</text>
  <text x="123" y="82" fill="#16784D" font-family="Inter, Arial, sans-serif" font-size="18" font-weight="850" letter-spacing="2.5">SOUTH AFRICA</text>
</svg>
